<mxfile host="app.diagrams.net" modified="2022-02-11T07:59:02.441Z" agent="5.0 (Macintosh; Intel Mac OS X 10_15_7) AppleWebKit/605.1.15 (KHTML, like Gecko) Version/15.1 Safari/605.1.15" etag="QOP7kWHrLx_XiAwakZFs" version="16.5.5" type="github">
  <diagram id="8wuS3CluTvJ87NTqqrw9" name="Page-1">
    <mxGraphModel dx="852" dy="1769" grid="1" gridSize="10" guides="1" tooltips="1" connect="1" arrows="1" fold="1" page="1" pageScale="1" pageWidth="827" pageHeight="1169" math="0" shadow="0">
      <root>
        <mxCell id="0" />
        <mxCell id="1" parent="0" />
        <mxCell id="McrKwHC-fK2BQCFGX_JN-1" value="&lt;span style=&quot;color: rgb(0 , 128 , 0) ; font-family: &amp;#34;consolas&amp;#34; , &amp;#34;menlo&amp;#34; , &amp;#34;courier&amp;#34; , monospace ; font-size: 14px ; font-style: italic ; background-color: rgb(255 , 255 , 255)&quot;&gt;feedback 结构体&lt;br&gt;&lt;/span&gt;&lt;span style=&quot;color: rgb(43 , 145 , 175) ; font-family: &amp;#34;consolas&amp;#34; , &amp;#34;menlo&amp;#34; , &amp;#34;courier&amp;#34; , monospace ; font-size: 14px ; background-color: rgb(255 , 255 , 255)&quot;&gt;StandbyReplyMessage&lt;/span&gt;&lt;span style=&quot;color: rgb(0 , 128 , 0) ; font-family: &amp;#34;consolas&amp;#34; , &amp;#34;menlo&amp;#34; , &amp;#34;courier&amp;#34; , monospace ; font-size: 14px ; font-style: italic ; background-color: rgb(255 , 255 , 255)&quot;&gt;&lt;br&gt;&lt;/span&gt;" style="rounded=0;whiteSpace=wrap;html=1;" vertex="1" parent="1">
          <mxGeometry x="80" y="360" width="180" height="60" as="geometry" />
        </mxCell>
        <mxCell id="McrKwHC-fK2BQCFGX_JN-2" value="&lt;span style=&quot;color: rgb(43 , 145 , 175) ; font-family: &amp;#34;consolas&amp;#34; , &amp;#34;menlo&amp;#34; , &amp;#34;courier&amp;#34; , monospace ; font-size: 14px ; background-color: rgb(255 , 255 , 255)&quot;&gt;Decoder_handler&lt;/span&gt;" style="rounded=0;whiteSpace=wrap;html=1;" vertex="1" parent="1">
          <mxGeometry x="100" y="440" width="130" height="60" as="geometry" />
        </mxCell>
        <mxCell id="McrKwHC-fK2BQCFGX_JN-3" value="&lt;span style=&quot;color: rgb(0 , 128 , 0) ; font-family: &amp;#34;consolas&amp;#34; , &amp;#34;menlo&amp;#34; , &amp;#34;courier&amp;#34; , monospace ; font-size: 14px ; font-style: italic ; background-color: rgb(255 , 255 , 255)&quot;&gt;发送feedback用的lsn&lt;br&gt;&lt;/span&gt;&lt;span style=&quot;font-family: &amp;#34;consolas&amp;#34; , &amp;#34;menlo&amp;#34; , &amp;#34;courier&amp;#34; , monospace ; font-size: 14px ; background-color: rgb(255 , 255 , 255)&quot;&gt;_delay_feedback_lsn&lt;/span&gt;&lt;span style=&quot;color: rgb(0 , 128 , 0) ; font-family: &amp;#34;consolas&amp;#34; , &amp;#34;menlo&amp;#34; , &amp;#34;courier&amp;#34; , monospace ; font-size: 14px ; font-style: italic ; background-color: rgb(255 , 255 , 255)&quot;&gt;&lt;br&gt;&lt;/span&gt;" style="rounded=0;whiteSpace=wrap;html=1;" vertex="1" parent="1">
          <mxGeometry x="85" y="530" width="170" height="70" as="geometry" />
        </mxCell>
        <mxCell id="McrKwHC-fK2BQCFGX_JN-4" value="&lt;span style=&quot;color: rgb(57 , 58 , 52) ; font-family: &amp;#34;consolas&amp;#34; , &amp;#34;menlo&amp;#34; , &amp;#34;courier&amp;#34; , monospace ; font-size: 14px ; background-color: rgb(255 , 255 , 255)&quot;&gt;数据库配置set_progress&lt;/span&gt;" style="rounded=0;whiteSpace=wrap;html=1;" vertex="1" parent="1">
          <mxGeometry x="100" y="620" width="120" height="60" as="geometry" />
        </mxCell>
        <mxCell id="McrKwHC-fK2BQCFGX_JN-5" value="&lt;span style=&quot;color: rgb(57 , 58 , 52) ; font-family: &amp;#34;consolas&amp;#34; , &amp;#34;menlo&amp;#34; , &amp;#34;courier&amp;#34; , monospace ; font-size: 14px ; background-color: rgb(255 , 255 , 255)&quot;&gt;parse_config&lt;/span&gt;" style="rounded=0;whiteSpace=wrap;html=1;" vertex="1" parent="1">
          <mxGeometry x="105" y="720" width="120" height="60" as="geometry" />
        </mxCell>
        <mxCell id="McrKwHC-fK2BQCFGX_JN-6" value="&lt;span style=&quot;color: rgb(0 , 128 , 0) ; font-family: &amp;#34;consolas&amp;#34; , &amp;#34;menlo&amp;#34; , &amp;#34;courier&amp;#34; , monospace ; font-size: 14px ; font-style: italic ; background-color: rgb(255 , 255 , 255)&quot;&gt;设置flushpos位置&lt;/span&gt;" style="rounded=0;whiteSpace=wrap;html=1;" vertex="1" parent="1">
          <mxGeometry x="80" y="810" width="120" height="60" as="geometry" />
        </mxCell>
        <mxCell id="McrKwHC-fK2BQCFGX_JN-7" value="&lt;font color=&quot;#008000&quot; face=&quot;consolas, menlo, courier, monospace&quot;&gt;&lt;span style=&quot;font-size: 14px ; background-color: rgb(255 , 255 , 255)&quot;&gt;feedback传参&lt;/span&gt;&lt;/font&gt;" style="rounded=0;whiteSpace=wrap;html=1;" vertex="1" parent="1">
          <mxGeometry x="325" y="440" width="120" height="60" as="geometry" />
        </mxCell>
        <mxCell id="McrKwHC-fK2BQCFGX_JN-10" value="&lt;font color=&quot;#008000&quot; face=&quot;consolas, menlo, courier, monospace&quot;&gt;&lt;span style=&quot;font-size: 14px ; background-color: rgb(255 , 255 , 255)&quot;&gt;连接数据库&lt;/span&gt;&lt;/font&gt;" style="rounded=0;whiteSpace=wrap;html=1;" vertex="1" parent="1">
          <mxGeometry x="320" y="50" width="120" height="60" as="geometry" />
        </mxCell>
        <mxCell id="McrKwHC-fK2BQCFGX_JN-12" value="&lt;span style=&quot;color: rgb(0 , 128 , 0) ; font-family: &amp;#34;consolas&amp;#34; , &amp;#34;menlo&amp;#34; , &amp;#34;courier&amp;#34; , monospace ; font-size: 14px ; background-color: rgb(255 , 255 , 255)&quot;&gt;判断slot是否存在&lt;/span&gt;" style="rhombus;whiteSpace=wrap;html=1;fontColor=#006633;" vertex="1" parent="1">
          <mxGeometry x="320" y="260" width="130" height="80" as="geometry" />
        </mxCell>
        <mxCell id="McrKwHC-fK2BQCFGX_JN-13" value="" style="endArrow=classic;html=1;rounded=0;fontColor=#006633;exitX=0.5;exitY=1;exitDx=0;exitDy=0;entryX=0.5;entryY=0;entryDx=0;entryDy=0;" edge="1" parent="1" source="McrKwHC-fK2BQCFGX_JN-10">
          <mxGeometry width="50" height="50" relative="1" as="geometry">
            <mxPoint x="470" y="160" as="sourcePoint" />
            <mxPoint x="380" y="140" as="targetPoint" />
          </mxGeometry>
        </mxCell>
        <mxCell id="McrKwHC-fK2BQCFGX_JN-14" value="" style="endArrow=classic;html=1;rounded=0;fontColor=#006633;exitX=0.5;exitY=1;exitDx=0;exitDy=0;entryX=0.5;entryY=0;entryDx=0;entryDy=0;" edge="1" parent="1" source="McrKwHC-fK2BQCFGX_JN-12" target="McrKwHC-fK2BQCFGX_JN-7">
          <mxGeometry width="50" height="50" relative="1" as="geometry">
            <mxPoint x="560" y="240" as="sourcePoint" />
            <mxPoint x="385" y="390" as="targetPoint" />
          </mxGeometry>
        </mxCell>
        <mxCell id="McrKwHC-fK2BQCFGX_JN-16" value="Y" style="edgeLabel;html=1;align=center;verticalAlign=middle;resizable=0;points=[];fontColor=#006633;" vertex="1" connectable="0" parent="McrKwHC-fK2BQCFGX_JN-14">
          <mxGeometry x="-0.4" y="2" relative="1" as="geometry">
            <mxPoint as="offset" />
          </mxGeometry>
        </mxCell>
        <mxCell id="McrKwHC-fK2BQCFGX_JN-17" value="slot不存在" style="rounded=0;whiteSpace=wrap;html=1;fontColor=#006633;" vertex="1" parent="1">
          <mxGeometry x="510" y="340" width="120" height="60" as="geometry" />
        </mxCell>
        <mxCell id="McrKwHC-fK2BQCFGX_JN-18" value="" style="endArrow=classic;html=1;rounded=0;fontColor=#006633;entryX=0.5;entryY=0;entryDx=0;entryDy=0;exitX=1;exitY=0.5;exitDx=0;exitDy=0;" edge="1" parent="1" source="McrKwHC-fK2BQCFGX_JN-12" target="McrKwHC-fK2BQCFGX_JN-17">
          <mxGeometry width="50" height="50" relative="1" as="geometry">
            <mxPoint x="450" y="160" as="sourcePoint" />
            <mxPoint x="560" y="130" as="targetPoint" />
            <Array as="points">
              <mxPoint x="570" y="300" />
            </Array>
          </mxGeometry>
        </mxCell>
        <mxCell id="McrKwHC-fK2BQCFGX_JN-19" value="N" style="edgeLabel;html=1;align=center;verticalAlign=middle;resizable=0;points=[];fontColor=#006633;" vertex="1" connectable="0" parent="McrKwHC-fK2BQCFGX_JN-18">
          <mxGeometry x="0.04" y="1" relative="1" as="geometry">
            <mxPoint as="offset" />
          </mxGeometry>
        </mxCell>
        <mxCell id="McrKwHC-fK2BQCFGX_JN-21" value="&lt;font color=&quot;#008000&quot; face=&quot;consolas, menlo, courier, monospace&quot;&gt;&lt;span style=&quot;font-size: 14px ; background-color: rgb(255 , 255 , 255)&quot;&gt;数据库连接成功&lt;/span&gt;&lt;/font&gt;" style="rhombus;whiteSpace=wrap;html=1;fontColor=#006633;" vertex="1" parent="1">
          <mxGeometry x="315" y="140" width="130" height="80" as="geometry" />
        </mxCell>
        <mxCell id="McrKwHC-fK2BQCFGX_JN-22" value="" style="endArrow=classic;html=1;rounded=0;fontColor=#006633;exitX=0.5;exitY=1;exitDx=0;exitDy=0;" edge="1" parent="1" source="McrKwHC-fK2BQCFGX_JN-21" target="McrKwHC-fK2BQCFGX_JN-12">
          <mxGeometry width="50" height="50" relative="1" as="geometry">
            <mxPoint x="560" y="180" as="sourcePoint" />
            <mxPoint x="610" y="130" as="targetPoint" />
          </mxGeometry>
        </mxCell>
        <mxCell id="McrKwHC-fK2BQCFGX_JN-23" value="Y" style="edgeLabel;html=1;align=center;verticalAlign=middle;resizable=0;points=[];fontColor=#006633;" vertex="1" connectable="0" parent="McrKwHC-fK2BQCFGX_JN-22">
          <mxGeometry x="-0.4177" y="1" relative="1" as="geometry">
            <mxPoint as="offset" />
          </mxGeometry>
        </mxCell>
        <mxCell id="McrKwHC-fK2BQCFGX_JN-24" value="数据库连接失败" style="rounded=0;whiteSpace=wrap;html=1;fontColor=#006633;" vertex="1" parent="1">
          <mxGeometry x="490" y="210" width="120" height="60" as="geometry" />
        </mxCell>
        <mxCell id="McrKwHC-fK2BQCFGX_JN-25" value="" style="endArrow=classic;html=1;rounded=0;fontColor=#006633;exitX=1;exitY=0.5;exitDx=0;exitDy=0;entryX=0.5;entryY=0;entryDx=0;entryDy=0;" edge="1" parent="1" source="McrKwHC-fK2BQCFGX_JN-21" target="McrKwHC-fK2BQCFGX_JN-24">
          <mxGeometry width="50" height="50" relative="1" as="geometry">
            <mxPoint x="490" y="180" as="sourcePoint" />
            <mxPoint x="540" y="130" as="targetPoint" />
            <Array as="points">
              <mxPoint x="550" y="180" />
            </Array>
          </mxGeometry>
        </mxCell>
        <mxCell id="McrKwHC-fK2BQCFGX_JN-26" value="N" style="edgeLabel;html=1;align=center;verticalAlign=middle;resizable=0;points=[];fontColor=#006633;" vertex="1" connectable="0" parent="McrKwHC-fK2BQCFGX_JN-25">
          <mxGeometry x="-0.3208" y="2" relative="1" as="geometry">
            <mxPoint as="offset" />
          </mxGeometry>
        </mxCell>
        <mxCell id="McrKwHC-fK2BQCFGX_JN-28" value="&lt;span style=&quot;color: rgb(0 , 128 , 0) ; font-family: &amp;#34;consolas&amp;#34; , &amp;#34;menlo&amp;#34; , &amp;#34;courier&amp;#34; , monospace ; font-size: 14px ; background-color: rgb(255 , 255 , 255)&quot;&gt;失败重传&lt;/span&gt;" style="rounded=0;whiteSpace=wrap;html=1;" vertex="1" parent="1">
          <mxGeometry x="315" y="870" width="120" height="60" as="geometry" />
        </mxCell>
        <mxCell id="McrKwHC-fK2BQCFGX_JN-29" value="" style="endArrow=classic;html=1;rounded=0;fontColor=#006633;exitX=0.5;exitY=1;exitDx=0;exitDy=0;entryX=0.5;entryY=0;entryDx=0;entryDy=0;" edge="1" parent="1" source="McrKwHC-fK2BQCFGX_JN-7">
          <mxGeometry width="50" height="50" relative="1" as="geometry">
            <mxPoint x="500" y="610" as="sourcePoint" />
            <mxPoint x="385" y="600" as="targetPoint" />
          </mxGeometry>
        </mxCell>
        <mxCell id="McrKwHC-fK2BQCFGX_JN-30" value="&lt;font style=&quot;font-size: 14px&quot;&gt;用户输入参数&lt;br&gt;启动&lt;br&gt;&lt;/font&gt;" style="rounded=1;whiteSpace=wrap;html=1;fontColor=#006633;" vertex="1" parent="1">
          <mxGeometry x="320" y="-50" width="120" height="60" as="geometry" />
        </mxCell>
        <mxCell id="McrKwHC-fK2BQCFGX_JN-31" value="" style="endArrow=classic;html=1;rounded=0;fontColor=#006633;exitX=0.5;exitY=1;exitDx=0;exitDy=0;entryX=0.5;entryY=0;entryDx=0;entryDy=0;" edge="1" parent="1" source="McrKwHC-fK2BQCFGX_JN-30" target="McrKwHC-fK2BQCFGX_JN-10">
          <mxGeometry width="50" height="50" relative="1" as="geometry">
            <mxPoint x="560" y="50" as="sourcePoint" />
            <mxPoint x="610" as="targetPoint" />
          </mxGeometry>
        </mxCell>
        <mxCell id="McrKwHC-fK2BQCFGX_JN-34" value="N" style="endArrow=classic;html=1;rounded=0;fontSize=14;fontColor=#006633;entryX=0.5;entryY=0;entryDx=0;entryDy=0;exitX=0.5;exitY=1;exitDx=0;exitDy=0;" edge="1" parent="1" source="McrKwHC-fK2BQCFGX_JN-40" target="McrKwHC-fK2BQCFGX_JN-28">
          <mxGeometry width="50" height="50" relative="1" as="geometry">
            <mxPoint x="490" y="633" as="sourcePoint" />
            <mxPoint x="380" y="530" as="targetPoint" />
            <Array as="points" />
          </mxGeometry>
        </mxCell>
        <mxCell id="McrKwHC-fK2BQCFGX_JN-36" value="&lt;font color=&quot;#008000&quot; face=&quot;consolas, menlo, courier, monospace&quot;&gt;&lt;span style=&quot;font-size: 14px ; background-color: rgb(255 , 255 , 255)&quot;&gt;发送成功&lt;/span&gt;&lt;/font&gt;" style="rounded=0;whiteSpace=wrap;html=1;" vertex="1" parent="1">
          <mxGeometry x="470" y="820" width="120" height="60" as="geometry" />
        </mxCell>
        <mxCell id="McrKwHC-fK2BQCFGX_JN-37" value="" style="endArrow=classic;html=1;rounded=0;fontSize=14;fontColor=#006633;exitX=0.5;exitY=1;exitDx=0;exitDy=0;" edge="1" parent="1" source="McrKwHC-fK2BQCFGX_JN-39" target="McrKwHC-fK2BQCFGX_JN-40">
          <mxGeometry width="50" height="50" relative="1" as="geometry">
            <mxPoint x="385" y="680" as="sourcePoint" />
            <mxPoint x="450" y="660" as="targetPoint" />
          </mxGeometry>
        </mxCell>
        <mxCell id="McrKwHC-fK2BQCFGX_JN-39" value="&lt;font color=&quot;#008000&quot; face=&quot;consolas, menlo, courier, monospace&quot;&gt;&lt;span style=&quot;font-size: 14px ; background-color: rgb(255 , 255 , 255)&quot;&gt;发送feedback&lt;/span&gt;&lt;/font&gt;" style="rounded=0;whiteSpace=wrap;html=1;" vertex="1" parent="1">
          <mxGeometry x="320" y="600" width="120" height="60" as="geometry" />
        </mxCell>
        <mxCell id="McrKwHC-fK2BQCFGX_JN-40" value="server返回成功&lt;br&gt;返回方式？" style="rhombus;whiteSpace=wrap;html=1;fontSize=14;fillColor=#ffe6cc;strokeColor=#d79b00;" vertex="1" parent="1">
          <mxGeometry x="340" y="710" width="80" height="80" as="geometry" />
        </mxCell>
        <mxCell id="McrKwHC-fK2BQCFGX_JN-41" value="" style="endArrow=classic;html=1;rounded=0;fontSize=14;fontColor=#006633;exitX=1;exitY=0.5;exitDx=0;exitDy=0;entryX=0.5;entryY=0;entryDx=0;entryDy=0;" edge="1" parent="1" source="McrKwHC-fK2BQCFGX_JN-40" target="McrKwHC-fK2BQCFGX_JN-36">
          <mxGeometry width="50" height="50" relative="1" as="geometry">
            <mxPoint x="420" y="830" as="sourcePoint" />
            <mxPoint x="470" y="780" as="targetPoint" />
            <Array as="points">
              <mxPoint x="530" y="750" />
            </Array>
          </mxGeometry>
        </mxCell>
        <mxCell id="McrKwHC-fK2BQCFGX_JN-42" value="" style="endArrow=classic;html=1;rounded=0;fontSize=14;fontColor=#006633;exitX=0;exitY=0.5;exitDx=0;exitDy=0;entryX=0;entryY=0.5;entryDx=0;entryDy=0;" edge="1" parent="1" source="McrKwHC-fK2BQCFGX_JN-28" target="McrKwHC-fK2BQCFGX_JN-39">
          <mxGeometry width="50" height="50" relative="1" as="geometry">
            <mxPoint x="260" y="830" as="sourcePoint" />
            <mxPoint x="310" y="780" as="targetPoint" />
            <Array as="points">
              <mxPoint x="240" y="900" />
              <mxPoint x="250" y="630" />
            </Array>
          </mxGeometry>
        </mxCell>
        <mxCell id="McrKwHC-fK2BQCFGX_JN-44" value="" style="endArrow=classic;html=1;rounded=0;fontSize=14;fontColor=#006633;exitX=1;exitY=0.5;exitDx=0;exitDy=0;entryX=1;entryY=0.5;entryDx=0;entryDy=0;" edge="1" parent="1" source="McrKwHC-fK2BQCFGX_JN-24" target="McrKwHC-fK2BQCFGX_JN-10">
          <mxGeometry width="50" height="50" relative="1" as="geometry">
            <mxPoint x="670" y="230" as="sourcePoint" />
            <mxPoint x="720" y="180" as="targetPoint" />
            <Array as="points">
              <mxPoint x="650" y="240" />
              <mxPoint x="650" y="90" />
            </Array>
          </mxGeometry>
        </mxCell>
      </root>
    </mxGraphModel>
  </diagram>
</mxfile>
